<svg xmlns="http://www.w3.org/2000/svg" viewBox="0 0 100 51">
	<defs>
		<linearGradient id="top" x1="50" y1="2.5" x2="50" y2="0" gradientUnits="userSpaceOnUse">
			<stop offset="0" style="stop-color: black; stop-opacity: 1.0" />
			<stop offset="1" style="stop-color: black; stop-opacity: 0.0" />
		</linearGradient>
		<linearGradient id="bottom" x1="50" y1="49" x2="50" y2="51" gradientUnits="userSpaceOnUse">
			<stop offset="0%" style="stop-color: black; stop-opacity: 1.0" />
			<stop offset="100%" style="stop-color: black; stop-opacity: 0.0" />
		</linearGradient>
		<linearGradient id="right" x1="98" y1="25" x2="100" y2="25" gradientUnits="userSpaceOnUse">
			<stop offset="0" style="stop-color: black; stop-opacity: 1.0" />
			<stop offset="1" style="stop-color: black; stop-opacity: 0.0" />
		</linearGradient>
		<linearGradient id="center" x1="48.7" y1="25" x2="50.7" y2="25" x3="51.7" y3="25" gradientUnits="userSpaceOnUse">
			<stop offset="0%" stop-color="white" />
			<stop offset="49%" stop-color="#cccccc" />
			<stop offset="50%" stop-color="#aaaaaa" />
			<stop offset="100%" stop-color="white" />
		</linearGradient>
	</defs>

	<!-- shadows -->
	<line x1="1.5" y1="0.25" x2="98.5" y2="0.25" stroke-width="2" stroke="url(#top)" stroke-linecap="round" />
	<line x1="1.5" y1="50" x2="98.5" y2="50" stroke-width="2" stroke="url(#bottom)" stroke-linecap="round" />
	<line x1="99" y1="2" x2="99" y2="49" stroke-width="2" stroke="url(#right)" stroke-linecap="round" />

	<!-- cover -->
	<rect x="0.5" y="0.5" width="49.5" height="49" transform="skewY(1)" stroke-width="0.2" stroke="#B35635" fill="#51060D" />
	<rect x="50" y="2.25" width="49" height="49" transform="skewY(-1)" stroke-width="0.2" stroke="#B35635" fill="#51060D" />
	<ellipse cx="49.7" cy="49.9" rx="2" ry="1" fill="#51060D" stroke-width="0.2" stroke="#B35635" />

	<!-- slice -->
	<rect x="1" y="2" width="46.5" height="47" transform="skewY(1)" fill="#aaaaaa" />
	<polygon points="1,2 2,2.1 2,1" fill="#aaaaaa" />
	<rect x="52" y="3.75" width="46.5" height="47" transform="skewY(-1)" fill="#aaaaaa" />
	<polygon points="97.5,1 98.5,2 97.5,2.1" fill="#aaaaaa" />

	<rect x="2" y="1" width="45.2" height="47" fill="white" />
	<rect x="52.2" y="1" width="45.3" height="47" fill="white" />

	<!-- slice top -->
	<ellipse cx="47.2" cy="2" rx="2.5" ry="1" fill="url(#center)" />
	<ellipse cx="52.2" cy="2" rx="2.5" ry="1" fill="url(#center)" />

	<!-- page center -->
	<line x1="49.7" y1="2" x2="49.7" y2="49" stroke-width="5.1" stroke="url(#center)" />

	<!-- slice bottom -->
	<ellipse cx="47.2" cy="48.9" rx="2.5" ry="0.9" fill="#aaaaaa" />
	<ellipse cx="52.2" cy="48.9" rx="2.5" ry="0.9" fill="#aaaaaa" />
	<line x1="47" y1="49.65" x2="52" y2="49.65" stroke-width="0.4" stroke="#aaaaaa" />

	<!-- cover bottom -->
	<line x1="47" y1="50.03" x2="52" y2="50.04" stroke-width="0.39" stroke="#51060D" />
	<polygon points="48.3,50 49.7,48.8 51,50" fill="#51060D" />
</svg>